<svg width="208" height="240" viewBox="0 0 208 240" fill="none" xmlns="http://www.w3.org/2000/svg">
<g clip-path="url(#clip0_7_351)">
<path d="M158.37 239.826H79.8026C69.5654 239.826 61.2366 231.497 61.2366 221.26V18.566C61.2366 8.32862 69.5654 0 79.8026 0H158.37C168.607 0 176.936 8.32862 176.936 18.566V221.26C176.936 231.497 168.607 239.826 158.37 239.826Z" fill="#2F2E41"/>
<path d="M158.45 234.815H79.7225C72.041 234.815 65.7917 228.566 65.7917 220.884V17.8027C65.7917 10.1213 72.041 3.87183 79.7225 3.87183H158.45C166.131 3.87183 172.381 10.1213 172.381 17.8027V220.884C172.381 228.566 166.131 234.815 158.45 234.815Z" fill="white"/>
<path d="M131.385 17.0816H106.332C103.444 17.0816 101.094 14.7318 101.094 11.8433C101.094 8.95475 103.444 6.60492 106.332 6.60492H131.385C134.274 6.60492 136.623 8.95475 136.623 11.8433C136.623 14.7318 134.274 17.0816 131.385 17.0816Z" fill="#2F2E41"/>
<path d="M207.407 239.705H0.783508" stroke="#090814" stroke-width="1.5" stroke-miterlimit="10"/>
<path d="M149.503 173.048H123.644C122.634 173.048 121.815 173.867 121.815 174.876V182.716C121.815 183.726 122.634 184.545 123.644 184.545H149.503C150.513 184.545 151.331 183.726 151.331 182.716V174.876C151.331 173.867 150.513 173.048 149.503 173.048Z" fill="white"/>
<path d="M149.354 184.864H123.793C122.526 184.864 121.496 183.834 121.496 182.567V175.026C121.496 173.759 122.526 172.729 123.793 172.729H149.354C150.62 172.729 151.651 173.759 151.651 175.026V182.567C151.651 183.834 150.62 184.864 149.354 184.864Z" fill="#FFA500"/>
<path d="M110.823 173.048H84.9642C83.9543 173.048 83.1356 173.867 83.1356 174.876V182.716C83.1356 183.726 83.9543 184.545 84.9642 184.545H110.823C111.833 184.545 112.652 183.726 112.652 182.716V174.876C112.652 173.867 111.833 173.048 110.823 173.048Z" fill="white" stroke="#090814" stroke-width="1.5" stroke-miterlimit="10"/>
<path d="M110.674 184.864H85.1133C83.8467 184.864 82.8163 183.834 82.8163 182.567V175.026C82.8163 173.759 83.8467 172.729 85.1133 172.729H110.674C111.941 172.729 112.971 173.759 112.971 175.026V182.567C112.971 183.834 111.941 184.864 110.674 184.864Z" fill="#DCDCDC"/>
<path d="M146.636 60.3775H88.649C86.1402 60.3775 84.1064 62.4113 84.1064 64.9202V122.907C84.1064 125.416 86.1402 127.45 88.649 127.45H146.636C149.145 127.45 151.179 125.416 151.179 122.907V64.9202C151.179 62.4113 149.145 60.3775 146.636 60.3775Z" fill="#DCDCDC"/>
<path d="M142.525 96.5975C142.525 104.63 137.24 111.429 129.957 113.716L129.147 119.061L128.541 123.081L127.882 127.45H115.458L110.832 123.596L108.803 121.908C108.803 121.908 109.606 120.878 110.673 119.235H110.681C111.324 118.243 112.074 117.024 112.786 115.662C113.406 114.503 114.012 113.239 114.527 111.937C114.572 111.808 114.625 111.679 114.671 111.55C109.833 108.34 106.638 102.844 106.638 96.5975C106.638 86.6871 114.671 78.6539 124.581 78.6539C131.872 78.6539 138.156 83.0072 140.958 89.2534C141.965 91.4948 142.525 93.9779 142.525 96.5975Z" fill="#F0A0A3"/>
<path d="M115.169 112.1C115.169 112.1 111.747 94.7894 116.692 96.8498C121.637 98.9102 120.314 102.393 120.314 102.393L125.053 95.3879V87.3523L128.144 83.8496L141.33 89.4127C141.33 89.4127 148.336 68.8086 128.35 75.4019C128.35 75.4019 111.248 68.3965 106.303 80.553C94.5798 107.938 115.169 112.1 115.169 112.1Z" fill="#2F2E43"/>
<path d="M135.771 127.45H102.496L109.689 120.098C109.999 119.78 110.325 119.5 110.673 119.235H110.681C113.293 117.274 116.836 116.949 119.796 118.501L128.541 123.081L135.688 126.829L135.771 127.45Z" fill="#2F2E43"/>
<path d="M137.611 127.45H125.899C123.68 126.057 121.197 124.512 118.661 122.96C117.752 122.407 116.76 122.158 115.723 122.158C114.179 122.158 112.513 122.703 110.832 123.596C109.015 124.565 107.175 125.935 105.434 127.45H91.4276L91.7531 126.829L90.8294 125.087C88.9973 121.62 92.1544 117.85 97.3482 117.305L112.786 115.662L115.799 115.344C120.887 114.806 125.974 116.229 129.147 119.061C129.192 119.099 129.238 119.144 129.283 119.182L136.763 126.064C137.218 126.481 137.498 126.958 137.611 127.45Z" fill="#FFA500"/>
<path d="M72.5393 130.665L67.1408 120.027L60.9293 123.179L66.3278 133.817C65.7512 135.494 65.8791 137.551 66.8408 139.446C68.5236 142.762 72.1125 144.321 74.8569 142.929C77.6013 141.536 78.4619 137.719 76.7791 134.403C75.8174 132.508 74.2327 131.19 72.5393 130.665Z" fill="#F0A0A3"/>
<path d="M35.9007 82.5657L63.1736 133.54L73.8372 127.834L49.9461 75.6044" fill="#FFA500"/>
<path d="M50.7986 94.5116L58.2319 129.035L25.8359 130.165C25.8359 130.165 30.0802 106.189 28.5735 102.046L50.7986 94.5116Z" fill="#F0A0A3"/>
<path d="M56.9879 232.961H64.5582V222.984H56.9879V232.961Z" fill="#F0A0A3"/>
<path d="M55.4551 238.87C54.8076 238.345 54.4581 237.76 54.4163 237.13C54.3685 236.409 54.7292 235.635 55.4883 234.831C55.5065 234.599 55.7421 231.731 56.2671 231.217C56.2231 231.064 55.9557 230.046 56.394 229.385C56.6005 229.073 56.9334 228.892 57.3833 228.845L57.4029 228.843L57.4126 228.86C57.4253 228.883 58.7028 231.102 60.6244 231.297C61.7261 231.408 62.8291 230.841 63.9028 229.611C63.9414 229.521 64.2448 228.022 64.4406 227.031L64.4484 226.991L74.9186 232.494L81.0388 234.188C81.8081 234.401 82.3453 235.107 82.3453 235.905C82.3453 236.586 81.949 237.216 81.3356 237.511L78.369 238.937C77.1294 239.533 75.7472 239.848 74.3718 239.848H58.28C57.2374 239.848 56.2342 239.5 55.4551 238.87Z" fill="#2F2E43"/>
<path d="M4.27186 228.014L11.5408 230.128L14.3279 220.548L7.05896 218.433L4.27186 228.014Z" fill="#F0A0A3"/>
<path d="M1.14982 233.258C0.674485 232.574 0.502361 231.915 0.638307 231.298C0.793777 230.592 1.3562 229.95 2.30979 229.39C2.39196 229.172 3.4194 226.484 4.06697 226.137C4.0676 225.978 4.09518 224.926 4.70071 224.413C4.98596 224.172 5.35625 224.091 5.80132 224.172L5.8207 224.175L5.82524 224.195C5.83117 224.22 6.43796 226.707 8.22864 227.431C9.25528 227.846 10.4727 227.61 11.8473 226.729C11.9097 226.652 12.6195 225.298 13.0845 224.401L13.1031 224.365L21.6193 232.574L27.0229 235.91C27.702 236.329 28.0206 237.157 27.7977 237.923C27.6076 238.577 27.051 239.071 26.3796 239.183L23.1328 239.724C21.7761 239.949 20.361 239.866 19.0403 239.482L3.58903 234.987C2.58796 234.695 1.72169 234.082 1.14982 233.258Z" fill="#2F2E43"/>
<path d="M22.3364 112.611L54.7324 113.365C54.7324 113.365 74.4185 170.111 73.6651 223.978H46.6405L45.0361 161.447L40.3418 226.406L4.72943 224.355L22.3364 112.611Z" fill="#2F2E43"/>
<path d="M53.3213 49.2331C53.3213 42.4361 47.8112 36.926 41.0141 36.926C34.217 36.926 28.7069 42.4361 28.7069 49.2331C28.7069 53.5172 30.897 57.2884 34.2174 59.4925C32.8123 63.2563 30.1914 66.5946 30.1914 66.5946L42.3201 76.702L44.6995 60.9784C49.696 59.4122 53.3213 54.7463 53.3213 49.2331Z" fill="#F0A0A3"/>
<path d="M44.6708 66.8803L30.7329 63.4901L21.7988 74.9292C19.6707 79.2706 19.3349 84.2747 20.8638 88.8615L28.2721 111.086C28.2721 111.086 50.8739 110.71 55.771 97.5252L57.1749 94.6004C59.0938 90.6026 58.6586 85.8734 56.0421 82.293L44.6708 66.8803Z" fill="#FFA500"/>
<path d="M29.835 140.358L30.0938 128.431L23.13 128.28L22.8713 140.207C21.572 141.413 20.7143 143.287 20.6682 145.412C20.5876 149.13 23.0164 152.198 26.0932 152.264C29.17 152.331 31.7296 149.371 31.8103 145.654C31.8564 143.529 31.0807 141.619 29.835 140.358Z" fill="#F0A0A3"/>
<path d="M20.2211 80.6628V138.474H32.3151L35.8894 81.1508" fill="#FFA500"/>
<path d="M34.5232 51.0533C34.5232 51.0533 44.2169 47.8373 41.8274 44.1866C41.8274 44.1866 52.1157 45.9787 52.3813 44.1866C52.6468 42.3944 52.3813 30.9112 38.4422 32.7698C24.5031 34.6283 26.3616 46.3106 26.3616 46.3106C26.3616 46.3106 27.3792 57.6034 34.8798 59.9266C34.8798 59.9266 29.0803 48.7301 34.5232 51.0533Z" fill="#2F2E43"/>
<path d="M31.4678 39.3671C31.4678 39.3671 28.6054 37.2999 25.266 37.936C24.0972 38.1586 22.8603 39.0143 21.746 40.0327C19.503 42.0827 17.8387 44.6809 16.7557 47.5201C13.8367 55.1718 7.71079 74.3109 18.4282 76.6573C31.8654 79.5992 32.7002 51.1744 32.7002 51.1744L31.4678 39.3671Z" fill="#2F2E43"/>
</g>
<defs>
<clipPath id="clip0_7_351">
<rect width="206.813" height="240" fill="white" transform="translate(0.593262)"/>
</clipPath>
</defs>
</svg>
