<svg width="252" height="240" viewBox="0 0 252 240" fill="none" xmlns="http://www.w3.org/2000/svg">
<g clip-path="url(#clip0_96_1250)">
<path d="M197.706 85.0815C197.706 85.6169 197.644 86.1653 197.514 86.7137L192.092 109.788C191.323 113.069 188.036 115.1 184.758 114.325L163.027 107.582L161.966 107.254C160.73 108.15 159.004 108.562 157.2 108.244C154.045 107.686 151.862 105.119 152.322 102.507C152.783 99.8978 155.713 98.2332 158.867 98.7881C160.672 99.106 162.155 100.083 163.011 101.345L163.027 101.348L163.083 101.358L181.997 103.698L183.587 84.5137C183.889 80.8469 186.952 78.0271 190.632 78.0271C194.623 78.0271 197.706 81.2883 197.706 85.0815Z" fill="#ED9DA0"/>
<path d="M197.706 85.0815C197.706 85.6169 197.644 86.1653 197.515 86.7137L193.066 110.762C192.297 114.042 189.009 116.074 185.732 115.298L164.001 109.256L164.974 99.8459L181.524 102.117L183.587 84.5137C183.889 80.8469 186.952 78.0271 190.632 78.0271C194.623 78.0271 197.706 81.2883 197.706 85.0815Z" fill="#2F2E43"/>
<path d="M0.711182 239.702H20.3702H37.8443H38.5468H53.9299H159.278H184.347H251.289" stroke="#090814" stroke-width="1.5" stroke-miterlimit="10"/>
<path d="M225.929 211.799L220.68 215.668L224.55 220.917L229.799 217.048L225.929 211.799Z" fill="#ED9DA0"/>
<path d="M232.423 222.483L221.265 230.708C220.312 231.411 219.192 231.899 218.028 232.12L215.242 232.648C214.666 232.757 214.07 232.522 213.722 232.05C213.314 231.497 213.325 230.733 213.75 230.192L217.128 225.889L221.574 216.722L221.6 216.745C222.242 217.333 223.219 218.216 223.292 218.26C224.665 218.564 225.72 218.393 226.426 217.752C227.659 216.635 227.411 214.443 227.408 214.421L227.406 214.404L227.421 214.396C227.756 214.198 228.08 214.154 228.382 214.264C229.024 214.498 229.359 215.341 229.407 215.47C230.033 215.558 231.663 217.426 231.794 217.577C232.732 217.747 233.377 218.099 233.712 218.623C234.006 219.082 234.062 219.666 233.881 220.361C233.664 221.196 233.146 221.95 232.423 222.483Z" fill="#2F2E43"/>
<path d="M180.917 227.115H174.396V233.636H180.917V227.115Z" fill="#ED9DA0"/>
<path d="M179.804 239.568H165.943C164.758 239.568 163.567 239.296 162.499 238.783L159.944 237.555C159.416 237.301 159.074 236.758 159.074 236.172C159.074 235.484 159.537 234.876 160.2 234.693L165.472 233.234L174.491 228.493L174.498 228.527C174.666 229.381 174.928 230.672 174.961 230.75C175.886 231.81 176.836 232.298 177.785 232.202C179.44 232.034 180.541 230.123 180.551 230.103L180.56 230.089L180.577 230.09C180.964 230.13 181.251 230.287 181.429 230.555C181.807 231.124 181.576 232.001 181.538 232.133C181.991 232.576 182.193 235.047 182.209 235.246C182.863 235.939 183.174 236.606 183.133 237.227C183.097 237.77 182.795 238.274 182.238 238.725C181.567 239.269 180.702 239.568 179.804 239.568Z" fill="#2F2E43"/>
<path d="M207.525 125.176H176.272L171.29 228.859H182.296L189.408 181.731L217.943 219.433L228.361 210.008L207.525 181.731V125.176Z" fill="#2F2E43"/>
<path d="M199.479 57.037C199.479 57.037 208.09 57.0184 204.873 48.7214C201.657 40.4243 195.667 44.1394 195.667 44.1394C195.667 44.1394 193.143 45.4725 193.663 48.4469" fill="#2F2E43"/>
<path d="M200.341 61.0168C200.341 54.6554 195.184 49.4985 188.823 49.4985C182.461 49.4985 177.304 54.6554 177.304 61.0168C177.304 66.1759 180.696 70.5422 185.372 72.0086L187.599 86.7243L198.95 77.2648C198.95 77.2648 196.498 74.1414 195.183 70.6193C198.291 68.5566 200.341 65.0267 200.341 61.0168Z" fill="#ED9DA0"/>
<path d="M194.357 70.7469C194.357 70.7469 195.886 64.8826 193.385 62.1861C190.89 59.4958 190.568 63.6818 190.568 63.6818L188.767 63.2904C188.767 63.2904 189.08 59.2195 185.557 58.515L187.828 53.6612C187.828 53.6612 179.136 55.3489 178.896 54.507C177.011 47.8831 194.994 42.2247 199.962 52.3304C207.688 68.048 194.357 70.7469 194.357 70.7469Z" fill="#2F2E43"/>
<path d="M200.662 110.963L205.767 126.005L176.887 125.681L181.193 111.937L200.662 110.963Z" fill="#ED9DA0"/>
<path d="M198.054 72.7854L185.247 77.2377L173.14 139.743L198.054 142.785L199.871 133.255L201.603 142.785H210.233L200.929 80.628C200.512 77.8459 199.534 75.1776 198.054 72.7854Z" fill="#FFA500"/>
<path d="M194.464 146.228L194.686 135.954L188.688 135.824L188.465 146.098C187.346 147.137 186.607 148.751 186.567 150.582C186.498 153.784 188.59 156.427 191.24 156.485C193.891 156.542 196.096 153.992 196.165 150.79C196.205 148.96 195.537 147.315 194.464 146.228Z" fill="#ED9DA0"/>
<path d="M186.182 94.806V144.605H196.6L199.679 95.2264" fill="#2F2E43"/>
<path d="M207.161 147.627C206.978 147.627 206.795 147.62 206.612 147.606C204.423 147.442 202.539 146.268 201.013 144.118C195.27 136.025 183.689 109.244 183.689 101.629C183.689 94.3508 185.273 77.6708 185.328 77.4209L197.025 70.9448C202.636 72.2621 206.542 77.4008 206.313 83.1635C205.752 97.2431 207.196 129.339 216.64 142.639L216.718 142.749L216.625 142.846C216.429 143.048 211.956 147.627 207.161 147.627Z" fill="#2F2E43"/>
<path d="M140.401 240H61.7763C51.5316 240 43.1968 231.665 43.1968 221.42V18.5795C43.1968 8.33467 51.5316 0 61.7763 0H140.401C150.646 0 158.98 8.33467 158.98 18.5795V221.42C158.98 231.665 150.646 240 140.401 240Z" fill="#2F2E41"/>
<path d="M140.481 234.986H61.6961C54.009 234.986 47.7551 228.732 47.7551 221.045V17.8156C47.7551 10.1286 54.009 3.87463 61.6961 3.87463H140.481C148.168 3.87463 154.422 10.1286 154.422 17.8156V221.045C154.422 228.732 148.168 234.986 140.481 234.986Z" fill="white"/>
<path d="M113.396 17.094H88.3249C85.4344 17.094 83.0828 14.7425 83.0828 11.8518C83.0828 8.96122 85.4344 6.60968 88.3249 6.60968H113.396C116.287 6.60968 118.638 8.96122 118.638 11.8518C118.638 14.7425 116.287 17.094 113.396 17.094Z" fill="#2F2E41"/>
<path d="M65.5828 56.757H92.6194" stroke="#090814" stroke-width="2" stroke-miterlimit="10"/>
<path d="M65.5828 67.0044H122.456" stroke="#090814" stroke-width="2" stroke-miterlimit="10"/>
<path d="M65.5828 62.393H147.05" stroke="#090814" stroke-width="2" stroke-miterlimit="10"/>
<path d="M59.4343 63.9301C61.9811 63.9301 64.0457 61.8656 64.0457 59.3188C64.0457 56.772 61.9811 54.7075 59.4343 54.7075C56.8876 54.7075 54.823 56.772 54.823 59.3188C54.823 61.8656 56.8876 63.9301 59.4343 63.9301Z" fill="#FFA500"/>
<path d="M65.5828 87.0942H92.6194" stroke="#090814" stroke-width="2" stroke-miterlimit="10"/>
<path d="M65.5828 97.3416H122.456" stroke="#090814" stroke-width="2" stroke-miterlimit="10"/>
<path d="M65.5828 92.7303H147.05" stroke="#090814" stroke-width="2" stroke-miterlimit="10"/>
<path d="M59.4343 94.2674C61.9811 94.2674 64.0457 92.2028 64.0457 89.6561C64.0457 87.1093 61.9811 85.0447 59.4343 85.0447C56.8876 85.0447 54.823 87.1093 54.823 89.6561C54.823 92.2028 56.8876 94.2674 59.4343 94.2674Z" fill="#FFA500"/>
<path d="M65.5828 117.431H92.6194" stroke="#090814" stroke-width="2" stroke-miterlimit="10"/>
<path d="M65.5828 127.679H122.456" stroke="#090814" stroke-width="2" stroke-miterlimit="10"/>
<path d="M65.5828 123.068H147.05" stroke="#090814" stroke-width="2" stroke-miterlimit="10"/>
<path d="M59.4343 124.605C61.9811 124.605 64.0457 122.54 64.0457 119.993C64.0457 117.447 61.9811 115.382 59.4343 115.382C56.8876 115.382 54.823 117.447 54.823 119.993C54.823 122.54 56.8876 124.605 59.4343 124.605Z" fill="#FFA500"/>
</g>
<defs>
<clipPath id="clip0_96_1250">
<rect width="250.578" height="240" fill="white" transform="translate(0.711182)"/>
</clipPath>
</defs>
</svg>
