<svg width="300" height="246" viewBox="0 0 300 246" fill="none" xmlns="http://www.w3.org/2000/svg">
<g clip-path="url(#clip0_7_59)">
<path d="M241.934 122.552H43.447C40.4497 122.552 38.0139 120.116 38.0139 117.119V5.43308C38.0139 2.43583 40.4497 0 43.447 0H241.938C244.935 0 247.371 2.43583 247.371 5.43308V117.119C247.371 120.116 244.935 122.552 241.938 122.552H241.934ZM43.447 3.53659C42.3993 3.53659 41.5505 4.38537 41.5505 5.43308V117.119C41.5505 118.166 42.3993 119.015 43.447 119.015H241.938C242.986 119.015 243.835 118.166 243.835 117.119V5.43308C243.835 4.38537 242.986 3.53659 241.938 3.53659H43.447Z" fill="#D7D7D8"/>
<path d="M300 244.321C300 244.688 299.704 244.984 299.337 244.984H0.66311C0.296189 244.984 0 244.688 0 244.321C0 243.954 0.296189 243.658 0.66311 243.658H299.337C299.704 243.658 300 243.954 300 244.321Z" fill="#2F2E43"/>
<path d="M142.502 122.043C143.855 125.071 143.307 128.268 141.282 129.192C139.258 130.111 136.517 128.405 135.164 125.376C134.607 124.174 134.359 122.848 134.443 121.508L128.882 108.609L135.301 105.934L140.102 118.935C141.154 119.758 141.976 120.823 142.498 122.043H142.502Z" fill="#A0616A"/>
<path d="M98.7283 48.3187C98.7283 48.3187 108.184 44.7158 109.983 47.324C111.783 49.9322 140.646 115.434 140.646 115.434L126.071 118.936L98.7283 48.3231V48.3187Z" fill="#D7D7D8"/>
<path d="M101.58 53.8004L112.906 57.5226V41.2234H102.632L101.58 53.8004Z" fill="#A0616A"/>
<path d="M111.504 45.7325C117.735 45.7325 122.786 40.6815 122.786 34.4508C122.786 28.2201 117.735 23.1691 111.504 23.1691C105.274 23.1691 100.223 28.2201 100.223 34.4508C100.223 40.6815 105.274 45.7325 111.504 45.7325Z" fill="#A0616A"/>
<path d="M108.631 35.335L110.187 37.2226L112.998 32.2979C112.998 32.2979 116.588 32.4836 116.588 29.8179C116.588 27.1522 119.882 27.077 119.882 27.077C119.882 27.077 124.545 18.934 114.886 21.0781C114.886 21.0781 108.184 16.4894 104.855 20.4106C104.855 20.4106 94.6391 25.5563 97.5612 34.5127L102.42 43.7476L103.52 41.6566C103.52 41.6566 102.853 32.8815 108.631 35.3261V35.335Z" fill="#2F2E43"/>
<path d="M107.446 222.964H98.189V236.098H107.446V222.964Z" fill="#A0616A"/>
<path d="M106.42 243.622C104.838 243.764 96.9158 244.392 96.5179 242.575C96.1554 240.908 96.6904 239.166 96.7655 238.928C97.5259 231.35 97.8088 231.266 97.9812 231.218C98.2509 231.138 99.0378 231.514 100.315 232.336L100.395 232.389L100.413 232.482C100.435 232.601 101.001 235.382 103.684 234.953C105.523 234.662 106.12 234.255 106.31 234.056C106.155 233.985 105.961 233.861 105.824 233.649C105.625 233.34 105.589 232.942 105.722 232.464C106.067 231.204 107.101 229.343 107.145 229.268L107.265 229.056L117.786 236.156L124.285 238.012C124.775 238.154 125.169 238.503 125.368 238.972C125.642 239.626 125.474 240.386 124.943 240.864C123.763 241.925 121.42 243.742 118.958 243.967C118.303 244.029 117.437 244.051 116.464 244.051C112.402 244.051 106.469 243.631 106.425 243.622H106.42Z" fill="#2F2E43"/>
<path d="M119.267 109.731L94.984 108.489C94.984 108.489 91.2617 122.6 95.9654 137.304L96.5312 225.847H110.253L123.188 134.51L119.267 109.731Z" fill="#2F2E43"/>
<path d="M115.169 50.6705L101.841 43.5973C101.841 43.5973 87.4775 64.5869 89.4625 75.9571C91.4518 87.3272 94.9795 108.494 94.9795 108.494L124.382 109.736L119.249 68.0528L115.169 50.6705Z" fill="#D7D7D8"/>
<path d="M114.029 222.964H104.771V236.098H114.029V222.964Z" fill="#A0616A"/>
<path d="M113.003 243.622C111.42 243.764 103.498 244.392 103.1 242.575C102.738 240.908 103.273 239.166 103.348 238.928C104.108 231.35 104.391 231.266 104.564 231.218C104.833 231.138 105.62 231.514 106.898 232.336L106.977 232.389L106.995 232.482C107.017 232.601 107.583 235.382 110.266 234.953C112.105 234.662 112.702 234.255 112.892 234.056C112.738 233.985 112.543 233.861 112.406 233.649C112.207 233.34 112.172 232.942 112.304 232.464C112.649 231.204 113.684 229.343 113.728 229.268L113.847 229.056L124.369 236.156L130.867 238.012C131.358 238.154 131.751 238.503 131.95 238.972C132.224 239.626 132.056 240.386 131.526 240.864C130.345 241.925 128.002 243.742 125.54 243.967C124.886 244.029 124.019 244.051 123.047 244.051C118.984 244.051 113.051 243.631 113.007 243.622H113.003Z" fill="#2F2E43"/>
<path d="M124.382 109.731L94.9795 108.489C94.9795 108.489 91.2572 122.6 95.9609 137.304L101.646 225.847H115.368L128.303 134.51L124.382 109.731Z" fill="#2F2E43"/>
<path d="M156.216 42.1296L154.354 46.7847C154.354 46.7847 152.639 53.3008 154.651 55.9002C156.658 58.4952 157.104 78.3929 154.947 79.8606C152.79 81.3327 182.289 66.2359 182.289 66.2359C182.289 66.2359 170.773 39.5302 170.579 39.433C170.384 39.3357 162.838 36.9839 162.838 36.9839L156.224 42.1296H156.216Z" fill="#2F2E43"/>
<path d="M175.424 65.1395L165.539 68.3888V54.1628H174.509L175.424 65.1395Z" fill="#F3A3A6"/>
<path d="M145.212 145.911C144.677 149.169 142.502 151.507 140.358 151.132C138.214 150.756 136.906 147.807 137.445 144.545C137.64 143.241 138.157 142.003 138.953 140.946L141.402 127.167L148.068 128.564L144.943 141.998C145.354 143.272 145.447 144.611 145.212 145.911Z" fill="#F3A3A6"/>
<path d="M171.71 224.414H162.453V237.548H171.71V224.414Z" fill="#F3A3A6"/>
<path d="M153.435 245.501C152.462 245.501 151.596 245.479 150.942 245.417C148.484 245.192 146.136 243.375 144.956 242.314C144.425 241.836 144.257 241.076 144.532 240.422C144.73 239.953 145.124 239.599 145.615 239.462L152.113 237.606L162.634 230.506L162.754 230.718C162.798 230.798 163.832 232.659 164.177 233.914C164.31 234.392 164.275 234.79 164.076 235.099C163.939 235.311 163.744 235.435 163.589 235.506C163.779 235.705 164.376 236.111 166.215 236.403C168.899 236.828 169.464 234.047 169.487 233.932L169.504 233.839L169.584 233.786C170.861 232.964 171.648 232.588 171.918 232.668C172.086 232.716 172.369 232.805 173.134 240.377C173.209 240.616 173.744 242.358 173.381 244.025C172.988 245.837 165.066 245.214 163.479 245.072C163.435 245.077 157.502 245.501 153.439 245.501H153.435Z" fill="#2F2E43"/>
<path d="M198.07 214.097L190.215 218.995L197.165 230.14L205.02 225.241L198.07 214.097Z" fill="#F3A3A6"/>
<path d="M187.638 243.697C186.551 243.697 185.552 243.565 184.84 243.441C184.141 243.317 183.593 242.76 183.478 242.062C183.399 241.558 183.545 241.049 183.889 240.674L188.421 235.661L193.593 224.069L193.805 224.184C193.885 224.229 195.746 225.259 196.705 226.143C197.072 226.479 197.253 226.837 197.244 227.204C197.24 227.46 197.143 227.663 197.045 227.809C197.311 227.88 198.031 227.907 199.747 227.182C202.249 226.125 201.258 223.464 201.214 223.353L201.179 223.265L201.219 223.181C201.869 221.806 202.333 221.072 202.607 220.997C202.779 220.948 203.062 220.873 207.717 226.899C207.907 227.058 209.282 228.256 209.857 229.861C210.48 231.607 203.429 235.272 202.01 235.988C201.966 236.023 194.588 241.385 191.555 242.911C190.352 243.516 188.929 243.702 187.634 243.702L187.638 243.697Z" fill="#2F2E43"/>
<path d="M178.527 114.581H152.608L150.256 138.692L160.548 227.778H173.779L168.488 176.325L189.95 222.779L201.709 214.547L184.95 171.18C184.95 171.18 190.936 133.4 186.232 123.988C181.529 114.581 178.527 114.581 178.527 114.581Z" fill="#2F2E43"/>
<path d="M191.418 116.053H146.432L162.604 62.8364H180.538L191.418 116.053Z" fill="#D7D7D8"/>
<path d="M165.433 62.8452C165.433 62.8452 154.262 62.549 153.086 65.4932C151.91 68.433 138.091 138.409 138.091 138.409H147.206L165.437 62.8452H165.433Z" fill="#D7D7D8"/>
<path d="M166.763 58.1018C172.203 58.1018 176.613 53.692 176.613 48.2524C176.613 42.8127 172.203 38.403 166.763 38.403C161.324 38.403 156.914 42.8127 156.914 48.2524C156.914 53.692 161.324 58.1018 166.763 58.1018Z" fill="#F3A3A6"/>
<path d="M168.673 32.9477C168.673 32.9477 180.53 29.9107 184.159 45.6883C184.159 45.6883 184.256 49.804 186.316 51.4706C188.376 53.1372 187.687 61.7621 187.687 61.7621C187.687 61.7621 191.608 68.2296 188.275 71.1694C188.275 71.1694 186.803 77.1463 188.96 80.5768C191.117 84.0072 199.251 102.875 185.724 104.024C185.724 104.024 178.863 99.8821 182.099 87.535C185.335 75.1879 181.706 68.3667 181.706 68.3667C181.706 68.3667 171.317 64.6002 171.905 56.5633C172.493 48.5264 165.238 40.5868 164.752 40.6884C164.266 40.7901 159.164 37.8459 156.91 46.8642L154.496 46.4531C154.496 46.4531 153.479 31.2811 168.673 32.9477Z" fill="#2F2E43"/>
<path d="M199.097 144.328C199.755 147.564 198.549 150.522 196.409 150.933C194.269 151.344 192.001 149.05 191.347 145.814C191.069 144.523 191.113 143.188 191.475 141.914L188.872 128.162L195.6 127.096L197.452 140.765C198.288 141.808 198.849 143.029 199.097 144.328Z" fill="#F3A3A6"/>
<path d="M172.705 62.9071C172.705 62.9071 182.546 61.6604 183.721 64.6002C184.897 67.54 198.717 137.516 198.717 137.516H189.601L172.705 62.9071Z" fill="#D7D7D8"/>
<path d="M169.721 155.893C191.912 155.893 209.901 137.904 209.901 115.713C209.901 93.5219 191.912 75.5327 169.721 75.5327C147.53 75.5327 129.541 93.5219 129.541 115.713C129.541 137.904 147.53 155.893 169.721 155.893Z" fill="#FFA500"/>
<path d="M175.959 95.121C173.231 104.245 170.503 113.37 167.771 122.494C166.264 119.948 164.756 117.401 163.253 114.855C161.75 112.313 157.78 114.621 159.292 117.172C161.693 121.225 164.089 125.279 166.489 129.333C167.511 131.057 170.119 130.668 170.685 128.785C173.921 117.972 177.152 107.154 180.388 96.3411C181.237 93.5074 176.807 92.2917 175.963 95.121H175.959Z" fill="white"/>
<path d="M146.817 128.047C148.55 130.858 148.439 134.05 146.574 135.173C144.708 136.296 141.791 134.925 140.058 132.114C139.35 131 138.93 129.726 138.833 128.409L131.65 116.398L137.6 113.078L144.05 125.27C145.195 125.96 146.145 126.915 146.822 128.047H146.817Z" fill="#A0616A"/>
<path d="M93.9672 60.7144C93.9672 60.7144 102.773 56.1522 104.891 58.504C107.008 60.8603 144.107 121.778 144.107 121.778L130.257 126.8L93.9628 60.7144H93.9672Z" fill="#D7D7D8"/>
</g>
<defs>
<clipPath id="clip0_7_59">
<rect width="300" height="245.501" fill="white"/>
</clipPath>
</defs>
</svg>
