<svg width="140" height="240" viewBox="0 0 140 240" fill="none" xmlns="http://www.w3.org/2000/svg">
<g clip-path="url(#clip0_96_1153)">
<path d="M20.2018 239.456C20.2018 239.758 20.4439 240 20.7454 240H138.978C139.279 240 139.522 239.758 139.522 239.456C139.522 239.155 139.279 238.913 138.978 238.913H20.7454C20.4439 238.913 20.2018 239.155 20.2018 239.456Z" fill="#484565"/>
<path d="M82.3785 0.150036C82.3785 0.150036 72.3705 -2.27546 66.3136 12.378C61.2662 24.5923 57.685 31.1151 61.7823 35.5458C63.2486 37.1308 65.3406 37.985 67.4966 38.0581L90.5639 38.8164C90.5639 38.8164 99.0326 16.6078 93.8847 8.5776C88.7368 0.542865 82.3785 0.150036 82.3785 0.150036Z" fill="#2F2E41"/>
<path d="M87.1563 36.971L76.0612 40.6206V24.6471H86.1286L87.1563 36.971Z" fill="#F6A6A9"/>
<path d="M78.642 230.531H68.2457L62.2208 174.996H78.2857L78.642 230.531Z" fill="#F6A6A9"/>
<path d="M58.1235 239.456C57.0318 239.456 56.0589 239.429 55.3234 239.361C52.5599 239.109 49.9289 237.072 48.6042 235.88C48.0104 235.345 47.8186 234.491 48.1292 233.756C48.353 233.226 48.7961 232.833 49.3442 232.678L56.639 230.595L68.4513 222.624L68.5837 222.862C68.634 222.948 69.7942 225.041 70.1825 226.452C70.3286 226.991 70.2921 227.439 70.0683 227.781C69.913 228.023 69.6983 228.16 69.5201 228.238C69.7348 228.462 70.4063 228.914 72.4663 229.243C75.4811 229.722 76.1114 226.598 76.1388 226.466L76.1571 226.361L76.2485 226.301C77.6828 225.379 78.5643 224.958 78.8704 225.045C79.0622 225.1 79.3774 225.196 80.2316 233.701C80.3184 233.966 80.9167 235.926 80.5102 237.794C80.0671 239.831 71.1737 239.128 69.3922 238.968C69.342 238.972 62.6821 239.447 58.1189 239.447V239.456H58.1235Z" fill="#2F2E41"/>
<path d="M102.12 230.531H91.7287L85.6992 174.996H101.764L102.12 230.531Z" fill="#F6A6A9"/>
<path d="M81.6065 239.456C80.5148 239.456 79.5419 239.429 78.8065 239.361C76.043 239.109 73.4119 237.072 72.0873 235.88C71.4934 235.345 71.3016 234.491 71.6122 233.756C71.836 233.226 72.2791 232.833 72.8272 232.678L80.122 230.595L91.9343 222.624L92.0668 222.862C92.117 222.948 93.2772 225.041 93.6655 226.452C93.8117 226.991 93.7751 227.439 93.5513 227.781C93.396 228.023 93.1813 228.16 93.0032 228.238C93.2178 228.462 93.8893 228.914 95.9494 229.243C98.9641 229.722 99.5945 226.598 99.6219 226.466L99.6401 226.361L99.7315 226.301C101.166 225.379 102.047 224.958 102.353 225.045C102.545 225.1 102.86 225.196 103.715 233.701C103.801 233.966 104.4 235.926 103.993 237.794C103.55 239.831 94.6567 239.128 92.8753 238.968C92.825 238.972 86.1652 239.447 81.602 239.447V239.456H81.6065Z" fill="#2F2E41"/>
<path d="M105.112 94.1277H54.6108L72.7632 34.3856H92.898L105.112 94.1277Z" fill="#DDDEDF"/>
<path d="M53.236 127.651C52.6331 131.309 50.1939 133.936 47.7866 133.511C45.3794 133.086 43.9132 129.779 44.5161 126.12C44.7354 124.654 45.3155 123.27 46.2062 122.078L48.956 106.607L56.4426 108.174L52.9345 123.256C53.3959 124.682 53.5009 126.189 53.2406 127.651L53.236 127.651Z" fill="#F6A6A9"/>
<path d="M75.9425 34.3947C75.9425 34.3947 63.3993 34.0658 62.0792 37.3638C60.7592 40.6663 45.2469 119.223 45.2469 119.223H55.4788L75.9425 34.3947Z" fill="#DDDEDF"/>
<path d="M78.6055 28.4201C84.713 28.4201 89.6641 23.469 89.6641 17.3615C89.6641 11.254 84.713 6.30286 78.6055 6.30286C72.498 6.30286 67.5469 11.254 67.5469 17.3615C67.5469 23.469 72.498 28.4201 78.6055 28.4201Z" fill="#F6A6A9"/>
<path d="M80.3412 3.79967C80.3412 3.79967 66.1445 24.9166 68.5335 38.0901L60.2749 32.9148C60.2749 32.9148 66.0897 6.24801 74.7548 4.1788L80.3412 3.7951L80.3412 3.79967Z" fill="#2F2E41"/>
<path d="M94.6155 94.1277H61.4762L43.3421 168.551C43.0087 171.693 45.0002 174.626 48.0561 175.443C58.0047 178.106 81.876 181.884 118.012 171.369C121.488 170.359 123.461 166.692 122.369 163.238L94.6156 94.1323L94.6155 94.1277Z" fill="#2F2E41"/>
<path d="M79.9758 39.9766L89.1571 35.2672C93.3549 33.7141 98.0369 34.2348 101.792 36.6786C113.211 44.1058 135.721 60.4814 126.047 68.5755C113.298 79.2458 96.0636 60.3215 96.0636 60.3215L79.9758 39.9766Z" fill="#DDDEDF"/>
<path d="M48.5373 51.3751L48.4958 51.4166C48.1192 50.9902 47.7322 50.5701 47.3245 50.1624C36.6077 39.4456 19.2326 39.4459 8.51611 50.1624C-2.20037 60.8788 -2.20067 78.254 8.51611 88.9708C8.92382 89.3785 9.34397 89.7654 9.77033 90.1421L9.72888 90.1835L48.5373 128.992L87.3457 90.1835C98.0622 79.467 98.0622 62.0916 87.3457 51.3751C76.6289 40.6583 59.2538 40.6586 48.5373 51.3751Z" fill="#FFA500"/>
<path d="M79.7749 48.025C76.582 46.1431 75.0152 42.9182 76.2805 40.8216C77.5458 38.7295 81.1589 38.5605 84.3564 40.4425C85.6445 41.1779 86.727 42.2193 87.5127 43.48L100.942 51.6381L96.7762 58.0513L83.9772 49.3268C82.479 49.24 81.0356 48.7924 79.7703 48.0204H79.7749L79.7749 48.025Z" fill="#F6A6A9"/>
<path d="M88.9012 55.4203L92.7199 46.2984L111.379 52.4741L103.034 66.3647L88.9012 55.4203Z" fill="#DDDEDF"/>
</g>
<defs>
<clipPath id="clip0_96_1153">
<rect width="139.043" height="240" fill="white" transform="translate(0.478638)"/>
</clipPath>
</defs>
</svg>
