<svg width="264" height="240" viewBox="0 0 264 240" fill="none" xmlns="http://www.w3.org/2000/svg">
<g clip-path="url(#clip0_7_434)">
<path d="M182.768 239.627H104.266C94.037 239.627 85.7152 231.306 85.7152 221.077V18.5506C85.7152 8.32172 94.037 0 104.266 0H182.768C192.997 0 201.319 8.32172 201.319 18.5506V221.077C201.319 231.306 192.997 239.627 182.768 239.627Z" fill="#2F2E41"/>
<path d="M182.848 234.621H104.186C96.5107 234.621 90.2665 228.377 90.2665 220.702V17.788C90.2665 10.1129 96.5107 3.86865 104.186 3.86865H182.848C190.523 3.86865 196.767 10.1129 196.767 17.788V220.702C196.767 228.377 190.523 234.621 182.848 234.621Z" fill="white"/>
<path d="M155.806 17.0675H130.773C127.887 17.0675 125.539 14.7196 125.539 11.8334C125.539 8.94731 127.887 6.59943 130.773 6.59943H155.806C158.692 6.59943 161.04 8.94731 161.04 11.8334C161.04 14.7196 158.692 17.0675 155.806 17.0675Z" fill="#2F2E41"/>
<path d="M65.8347 99.5364L74.9051 102.518V89.4597H66.6748L65.8347 99.5364Z" fill="#A0616A"/>
<path d="M73.7835 93.0741C78.7751 93.0741 82.8216 89.0276 82.8216 84.036C82.8216 79.0444 78.7751 74.9979 73.7835 74.9979C68.7919 74.9979 64.7454 79.0444 64.7454 84.036C64.7454 89.0276 68.7919 93.0741 73.7835 93.0741Z" fill="#A0616A"/>
<path d="M71.48 84.7422L72.7263 86.2562L74.9789 82.3142C74.9789 82.3142 77.8547 82.4619 77.8547 80.3293C77.8547 78.1967 80.4951 78.1367 80.4951 78.1367C80.4951 78.1367 84.2294 71.6143 76.493 73.3315C76.493 73.3315 71.1246 69.6525 68.4566 72.796C68.4566 72.796 60.2724 76.9181 62.6127 84.0959L66.504 91.4908L67.3856 89.8152C67.3856 89.8152 66.8502 82.785 71.48 84.7422Z" fill="#2F2E43"/>
<path d="M70.6445 223.24H63.342V233.599H70.6445V223.24Z" fill="#A0616A"/>
<path d="M69.8367 239.53C68.5858 239.645 62.3404 240.135 62.0265 238.704C61.7403 237.388 62.1604 236.013 62.2204 235.828C62.8204 229.855 63.042 229.786 63.1759 229.744C63.3882 229.684 64.0114 229.975 65.0177 230.626L65.0823 230.667L65.0961 230.741C65.1146 230.834 65.5623 233.026 67.6765 232.694C69.1259 232.463 69.5967 232.144 69.749 231.988C69.6244 231.932 69.4721 231.835 69.3659 231.664C69.209 231.42 69.1813 231.106 69.2828 230.732C69.5552 229.74 70.3722 228.272 70.4045 228.212L70.4968 228.045L78.7964 233.645L83.9201 235.108C84.3079 235.219 84.6171 235.496 84.7741 235.865C84.991 236.382 84.8572 236.982 84.4417 237.356C83.5093 238.191 81.6629 239.627 79.7196 239.802C79.2026 239.849 78.5194 239.867 77.7532 239.867C74.5451 239.867 69.8691 239.535 69.8321 239.53L69.8367 239.53Z" fill="#2F2E43"/>
<path d="M47.8621 207.69L41.2595 215.671L46.8862 220.326L53.4888 212.345L47.8621 207.69Z" fill="#A0616A"/>
<path d="M42.4916 224.385C41.4577 223.674 36.3293 220.074 36.9986 218.772C37.6172 217.576 38.8173 216.787 38.9835 216.681C43.2533 212.462 43.4702 212.55 43.5995 212.605C43.8026 212.693 44.0934 213.316 44.458 214.456L44.4811 214.525L44.4442 214.59C44.398 214.673 43.3456 216.649 45.1874 217.738C46.4522 218.486 47.0199 218.537 47.2323 218.514C47.1723 218.393 47.1169 218.218 47.1399 218.02C47.1723 217.733 47.3523 217.47 47.6754 217.249C48.5201 216.658 50.0803 216.049 50.1496 216.021L50.325 215.952L53.15 225.557L56.1642 229.952C56.3904 230.284 56.455 230.695 56.3396 231.083C56.178 231.618 55.6934 231.997 55.1302 232.02C53.8793 232.071 51.5436 231.997 49.9326 230.894C49.5079 230.603 48.9679 230.183 48.377 229.693C45.9075 227.649 42.5147 224.413 42.487 224.385H42.4916Z" fill="#2F2E43"/>
<path d="M82.7201 143.342H57.6737L63.2406 226.135H71.5909L82.7247 143.342H82.7201Z" fill="#2F2E43"/>
<path d="M77.6194 147.903L82.72 143.342L80.1674 188.879L51.6452 216.012L44.532 210.135L61.1541 188.57L77.6194 147.903Z" fill="#2F2E43"/>
<path d="M77.6194 94.6435L65.2485 92.6356L61.408 99.3518C56.5243 107.891 54.5348 117.779 55.7304 127.542L57.6737 143.351H82.72L77.6194 94.6481L77.6194 94.6435Z" fill="#FFA500"/>
<path d="M67.5749 158.252C68.0873 160.804 67.1318 163.136 65.4469 163.459C63.7575 163.777 61.9757 161.968 61.4633 159.41C61.2464 158.39 61.2833 157.338 61.5741 156.336L59.5431 145.484L64.8515 144.658L66.287 155.445C66.9425 156.272 67.3857 157.232 67.5749 158.256V158.252Z" fill="#A0616A"/>
<path d="M61.1172 155.311L53.3208 131.225V131.188L56.2658 106.387C56.7182 102.588 59.9401 99.7257 63.7622 99.7257C66.1025 99.7257 68.272 100.783 69.7122 102.629C71.1524 104.476 71.6555 106.834 71.0877 109.11L65.8855 129.914L67.1272 153.525L61.1126 155.311L61.1172 155.311Z" fill="#FFA500"/>
<path d="M103.527 75.395H122.473" stroke="#090814" stroke-width="2" stroke-miterlimit="10"/>
<path d="M103.527 82.5757H143.38" stroke="#090814" stroke-width="2" stroke-miterlimit="10"/>
<path d="M103.527 79.3444H160.614" stroke="#090814" stroke-width="2" stroke-miterlimit="10"/>
<path d="M99.2189 80.4215C101.003 80.4215 102.45 78.9748 102.45 77.1902C102.45 75.4056 101.003 73.9589 99.2189 73.9589C97.4343 73.9589 95.9875 75.4056 95.9875 77.1902C95.9875 78.9748 97.4343 80.4215 99.2189 80.4215Z" fill="#FFA500"/>
<path d="M184.239 132.482H106.112C104.588 132.482 103.348 131.242 103.348 129.718V88.7509C103.348 87.2267 104.588 85.9866 106.112 85.9866H184.239C185.763 85.9866 187.003 87.2267 187.003 88.7509V129.718C187.003 131.242 185.763 132.482 184.239 132.482Z" fill="#D3D3D3"/>
<path d="M142.353 134.101L142.333 134.081L142.313 134.101C141.341 133.129 139.765 133.131 138.794 134.103C137.823 135.075 137.803 136.671 138.775 137.642L142.336 141.199L145.893 137.638C146.865 136.665 146.844 135.07 145.873 134.098C144.9 133.127 143.325 133.128 142.353 134.1L142.353 134.101Z" fill="#FFA500"/>
<path d="M0.681763 239.641H13.4419H24.7839H25.2399H35.2247H103.603H119.875H263.318" stroke="#090814" stroke-width="2" stroke-miterlimit="10"/>
</g>
<defs>
<clipPath id="clip0_7_434">
<rect width="262.636" height="240" fill="white" transform="translate(0.681763)"/>
</clipPath>
</defs>
</svg>
