<svg width="212" height="40" viewBox="0 0 212 40" fill="none" xmlns="http://www.w3.org/2000/svg">
<path fill-rule="evenodd" clip-rule="evenodd" d="M25.5557 11.6853C23.9112 10.5865 21.9778 10 20 10V0C23.9556 0 27.8224 1.17298 31.1114 3.37061C34.4004 5.56823 36.9638 8.69181 38.4776 12.3463C39.9913 16.0008 40.3874 20.0222 39.6157 23.9018C38.844 27.7814 36.9392 31.3451 34.1421 34.1421C31.3451 36.9392 27.7814 38.844 23.9018 39.6157C20.0222 40.3874 16.0008 39.9913 12.3463 38.4776C8.6918 36.9638 5.56823 34.4004 3.37061 31.1114C1.17298 27.8224 0 23.9556 0 20H10C10 21.9778 10.5865 23.9112 11.6853 25.5557C12.7841 27.2002 14.3459 28.4819 16.1732 29.2388C18.0004 29.9957 20.0111 30.1937 21.9509 29.8078C23.8907 29.422 25.6725 28.4696 27.0711 27.0711C28.4696 25.6725 29.422 23.8907 29.8078 21.9509C30.1937 20.0111 29.9957 18.0004 29.2388 16.1732C28.4819 14.3459 27.2002 12.7841 25.5557 11.6853Z" fill="#1E3A5F"/>
<path fill-rule="evenodd" clip-rule="evenodd" d="M9.99999 5.28493e-06C9.99999 1.31322 9.74134 2.61358 9.23879 3.82684C8.73624 5.04009 7.99965 6.14248 7.07106 7.07107C6.14248 7.99966 5.04009 8.73625 3.82683 9.2388C2.61357 9.74134 1.31321 10 4.3711e-07 10L0 20C2.62643 20 5.22715 19.4827 7.65367 18.4776C10.0802 17.4725 12.285 15.9993 14.1421 14.1421C15.9993 12.285 17.4725 10.0802 18.4776 7.65367C19.4827 5.22715 20 2.62643 20 0L9.99999 5.28493e-06Z" fill="#1E3A5F"/>
<path d="M56.068 28L49.972 11.2H53.08L57.94 24.58L62.812 11.2H65.908L59.812 28H56.068ZM67.5784 16H70.5064V28H67.5784V16ZM69.0664 14.452C68.6344 14.452 68.2704 14.312 67.9744 14.032C67.6784 13.744 67.5304 13.384 67.5304 12.952C67.5304 12.528 67.6784 12.172 67.9744 11.884C68.2704 11.596 68.6304 11.452 69.0544 11.452C69.4784 11.452 69.8344 11.596 70.1224 11.884C70.4184 12.172 70.5664 12.528 70.5664 12.952C70.5664 13.384 70.4224 13.744 70.1344 14.032C69.8464 14.312 69.4904 14.452 69.0664 14.452ZM78.6297 28.312C77.5257 28.312 76.5177 28.028 75.6057 27.46C74.7017 26.892 73.9777 26.132 73.4337 25.18C72.8977 24.22 72.6297 23.16 72.6297 22C72.6297 21.12 72.7857 20.3 73.0977 19.54C73.4097 18.772 73.8377 18.1 74.3817 17.524C74.9337 16.94 75.5737 16.484 76.3017 16.156C77.0297 15.828 77.8057 15.664 78.6297 15.664C79.7337 15.664 80.7377 15.948 81.6417 16.516C82.5537 17.084 83.2777 17.848 83.8137 18.808C84.3577 19.768 84.6297 20.832 84.6297 22C84.6297 22.872 84.4737 23.688 84.1617 24.448C83.8497 25.208 83.4177 25.88 82.8657 26.464C82.3217 27.04 81.6857 27.492 80.9577 27.82C80.2377 28.148 79.4617 28.312 78.6297 28.312ZM78.6297 25.384C79.2137 25.384 79.7377 25.228 80.2017 24.916C80.6657 24.604 81.0297 24.192 81.2937 23.68C81.5657 23.168 81.7017 22.608 81.7017 22C81.7017 21.376 81.5617 20.808 81.2817 20.296C81.0097 19.776 80.6377 19.364 80.1657 19.06C79.7017 18.748 79.1897 18.592 78.6297 18.592C78.0537 18.592 77.5337 18.748 77.0697 19.06C76.6057 19.372 76.2377 19.788 75.9657 20.308C75.6937 20.828 75.5577 21.392 75.5577 22C75.5577 22.632 75.6977 23.204 75.9777 23.716C76.2577 24.228 76.6297 24.636 77.0937 24.94C77.5657 25.236 78.0777 25.384 78.6297 25.384ZM86.5741 28V10H89.5021V28H86.5741ZM97.7191 28.312C96.6151 28.312 95.6071 28.028 94.6951 27.46C93.7911 26.892 93.0671 26.128 92.5231 25.168C91.9871 24.208 91.7191 23.148 91.7191 21.988C91.7191 21.116 91.8751 20.3 92.1871 19.54C92.4991 18.772 92.9271 18.1 93.4711 17.524C94.0231 16.94 94.6631 16.484 95.3911 16.156C96.1191 15.828 96.8951 15.664 97.7191 15.664C98.6551 15.664 99.5111 15.864 100.287 16.264C101.071 16.656 101.735 17.196 102.279 17.884C102.823 18.572 103.219 19.356 103.467 20.236C103.715 21.116 103.771 22.036 103.635 22.996H94.8631C94.9751 23.444 95.1591 23.848 95.4151 24.208C95.6711 24.56 95.9951 24.844 96.3871 25.06C96.7791 25.268 97.2231 25.376 97.7191 25.384C98.2311 25.392 98.6951 25.272 99.1111 25.024C99.5351 24.768 99.8871 24.424 100.167 23.992L103.155 24.688C102.667 25.752 101.939 26.624 100.971 27.304C100.003 27.976 98.9191 28.312 97.7191 28.312ZM94.7671 20.8H100.671C100.583 20.32 100.395 19.888 100.107 19.504C99.8271 19.112 99.4791 18.8 99.0631 18.568C98.6471 18.336 98.1991 18.22 97.7191 18.22C97.2391 18.22 96.7951 18.336 96.3871 18.568C95.9791 18.792 95.6311 19.1 95.3431 19.492C95.0631 19.876 94.8711 20.312 94.7671 20.8ZM116.82 20.416V28H113.892V21.184C113.892 20.712 113.776 20.284 113.544 19.9C113.312 19.508 113 19.2 112.608 18.976C112.224 18.744 111.796 18.628 111.324 18.628C110.852 18.628 110.42 18.744 110.028 18.976C109.644 19.2 109.336 19.508 109.104 19.9C108.88 20.284 108.768 20.712 108.768 21.184V28H105.84L105.828 16H108.756L108.768 17.068C109.176 16.636 109.664 16.296 110.232 16.048C110.8 15.792 111.412 15.664 112.068 15.664C112.94 15.664 113.736 15.88 114.456 16.312C115.176 16.736 115.748 17.308 116.172 18.028C116.604 18.74 116.82 19.536 116.82 20.416ZM126.656 24.388L129.296 25.816C128.744 26.568 128.052 27.172 127.22 27.628C126.388 28.084 125.48 28.312 124.496 28.312C123.392 28.312 122.384 28.028 121.472 27.46C120.568 26.892 119.844 26.132 119.3 25.18C118.764 24.22 118.496 23.16 118.496 22C118.496 21.12 118.652 20.3 118.964 19.54C119.276 18.772 119.704 18.1 120.248 17.524C120.8 16.94 121.44 16.484 122.168 16.156C122.896 15.828 123.672 15.664 124.496 15.664C125.48 15.664 126.388 15.892 127.22 16.348C128.052 16.804 128.744 17.416 129.296 18.184L126.656 19.6C126.376 19.28 126.044 19.032 125.66 18.856C125.284 18.68 124.896 18.592 124.496 18.592C123.92 18.592 123.4 18.752 122.936 19.072C122.472 19.384 122.104 19.8 121.832 20.32C121.56 20.832 121.424 21.392 121.424 22C121.424 22.6 121.56 23.16 121.832 23.68C122.104 24.192 122.472 24.604 122.936 24.916C123.4 25.228 123.92 25.384 124.496 25.384C124.912 25.384 125.308 25.296 125.684 25.12C126.06 24.936 126.384 24.692 126.656 24.388ZM136.595 28.312C135.491 28.312 134.483 28.028 133.571 27.46C132.667 26.892 131.943 26.128 131.399 25.168C130.863 24.208 130.595 23.148 130.595 21.988C130.595 21.116 130.751 20.3 131.063 19.54C131.375 18.772 131.803 18.1 132.347 17.524C132.899 16.94 133.539 16.484 134.267 16.156C134.995 15.828 135.771 15.664 136.595 15.664C137.531 15.664 138.387 15.864 139.163 16.264C139.947 16.656 140.611 17.196 141.155 17.884C141.699 18.572 142.095 19.356 142.343 20.236C142.591 21.116 142.647 22.036 142.511 22.996H133.739C133.851 23.444 134.035 23.848 134.291 24.208C134.547 24.56 134.871 24.844 135.263 25.06C135.655 25.268 136.099 25.376 136.595 25.384C137.107 25.392 137.571 25.272 137.987 25.024C138.411 24.768 138.763 24.424 139.043 23.992L142.031 24.688C141.543 25.752 140.815 26.624 139.847 27.304C138.879 27.976 137.795 28.312 136.595 28.312ZM133.643 20.8H139.547C139.459 20.32 139.271 19.888 138.983 19.504C138.703 19.112 138.355 18.8 137.939 18.568C137.523 18.336 137.075 18.22 136.595 18.22C136.115 18.22 135.671 18.336 135.263 18.568C134.855 18.792 134.507 19.1 134.219 19.492C133.939 19.876 133.747 20.312 133.643 20.8ZM156.607 11.2H159.979L166.087 28H162.979L161.899 25.024H154.699L153.619 28H150.511L156.607 11.2ZM155.767 22.096H160.819L158.287 15.172L155.767 22.096ZM168.34 28V10H171.268V28H168.34ZM179.485 28.312C178.381 28.312 177.373 28.028 176.461 27.46C175.557 26.892 174.833 26.128 174.289 25.168C173.753 24.208 173.485 23.148 173.485 21.988C173.485 21.116 173.641 20.3 173.953 19.54C174.265 18.772 174.693 18.1 175.237 17.524C175.789 16.94 176.429 16.484 177.157 16.156C177.885 15.828 178.661 15.664 179.485 15.664C180.421 15.664 181.277 15.864 182.053 16.264C182.837 16.656 183.501 17.196 184.045 17.884C184.589 18.572 184.985 19.356 185.233 20.236C185.481 21.116 185.537 22.036 185.401 22.996H176.629C176.741 23.444 176.925 23.848 177.181 24.208C177.437 24.56 177.761 24.844 178.153 25.06C178.545 25.268 178.989 25.376 179.485 25.384C179.997 25.392 180.461 25.272 180.877 25.024C181.301 24.768 181.653 24.424 181.933 23.992L184.921 24.688C184.433 25.752 183.705 26.624 182.737 27.304C181.769 27.976 180.685 28.312 179.485 28.312ZM176.533 20.8H182.437C182.349 20.32 182.161 19.888 181.873 19.504C181.593 19.112 181.245 18.8 180.829 18.568C180.413 18.336 179.965 18.22 179.485 18.22C179.005 18.22 178.561 18.336 178.153 18.568C177.745 18.792 177.397 19.1 177.109 19.492C176.829 19.876 176.637 20.312 176.533 20.8ZM187.605 28L187.593 16H190.521L190.533 17.068C190.941 16.636 191.429 16.296 191.997 16.048C192.565 15.792 193.177 15.664 193.833 15.664C194.273 15.664 194.713 15.728 195.153 15.856L194.001 18.808C193.697 18.688 193.393 18.628 193.089 18.628C192.617 18.628 192.185 18.744 191.793 18.976C191.409 19.2 191.101 19.508 190.869 19.9C190.645 20.284 190.533 20.712 190.533 21.184V28H187.605ZM203.5 18.928H201.172V28H198.244V18.928H196.468V16H198.244V12.232H201.172V16H203.5V18.928Z" fill="#1E3A5F"/>
</svg>
