<svg width="34" height="34" viewBox="0 0 34 34" fill="none" xmlns="http://www.w3.org/2000/svg">
<rect width="34" height="34" rx="17" fill="#1E3A5F"/>
<path d="M14 15C15.1046 15 16 14.1046 16 13C16 11.8954 15.1046 11 14 11C12.8954 11 12 11.8954 12 13C12 14.1046 12.8954 15 14 15Z" stroke="white" stroke-width="1.5" stroke-linecap="round" stroke-linejoin="round"/>
<path d="M18 7H14C9 7 7 9 7 14V20C7 25 9 27 14 27H20C25 27 27 25 27 20V15" stroke="white" stroke-width="1.5" stroke-linecap="round" stroke-linejoin="round"/>
<path d="M20.75 10H26.25" stroke="white" stroke-width="1.5" stroke-linecap="round"/>
<path d="M23.5 12.75V7.25" stroke="white" stroke-width="1.5" stroke-linecap="round"/>
<path d="M7.66992 23.9501L12.5999 20.6401C13.3899 20.1101 14.5299 20.1701 15.2399 20.7801L15.5699 21.0701C16.3499 21.7401 17.6099 21.7401 18.3899 21.0701L22.5499 17.5001C23.3299 16.8301 24.5899 16.8301 25.3699 17.5001L26.9999 18.9001" stroke="white" stroke-width="1.5" stroke-linecap="round" stroke-linejoin="round"/>
</svg>
