<svg width="24" height="24" viewBox="0 0 24 24" fill="none" xmlns="http://www.w3.org/2000/svg">
<g clip-path="url(#clip0_325_1627)">
<path d="M17.5243 14.4512C17.4565 14.2253 17.1779 14.1196 16.8917 14.1196C16.613 14.1196 16.3343 14.2253 16.2665 14.4512L14.8129 19.1885C14.8054 19.2188 14.7979 19.2488 14.7979 19.2638C14.7979 19.5049 15.1518 19.6705 15.4155 19.6705C15.5812 19.6705 15.7092 19.6179 15.7469 19.4747L16.0329 18.473H17.7578L18.0441 19.4747C18.0817 19.6179 18.2097 19.6705 18.3754 19.6705C18.639 19.6705 18.993 19.4974 18.993 19.2638C18.993 19.2413 18.9855 19.2186 18.978 19.1885L17.5243 14.4512ZM16.2363 17.7047L16.8915 15.3926L17.547 17.7047H16.2363Z" fill="black"/>
<path d="M13.7092 9.79065V10.2906H14.2092H21.4142C22.5639 10.2906 23.5 11.2267 23.5 12.3766V21.414C23.5 22.5637 22.5638 23.5 21.4142 23.5H12.3766C11.3323 23.5 10.4629 22.7268 10.3136 21.7225L10.2824 21.5125L10.1096 21.3891L7.73989 19.6965L7.73971 19.6963C7.68657 19.6584 7.65485 19.5969 7.65485 19.5313C7.65485 19.4658 7.68651 19.4042 7.73989 19.366C7.73992 19.366 7.73995 19.3659 7.73997 19.3659L10.0814 17.6935L10.2908 17.5439V17.2866V14.2094V13.7094H9.79083H2.586C1.43609 13.7094 0.5 12.7732 0.5 11.6235V2.586C0.5 1.43612 1.43612 0.5 2.586 0.5H11.6234C12.6677 0.5 13.5371 1.27318 13.6864 2.27755L13.7176 2.48753L13.8904 2.61091L16.26 4.30348C16.2601 4.3035 16.2601 4.30352 16.2601 4.30354C16.3136 4.34177 16.3452 4.40323 16.3452 4.46887C16.3452 4.53426 16.3136 4.59575 16.2601 4.63402C16.2601 4.63404 16.2601 4.63406 16.26 4.63408L13.9186 6.30651L13.7092 6.45607V6.71338V9.79065ZM13.388 2.75116L13.3878 2.75102C13.3347 2.71314 13.3029 2.65169 13.3029 2.58582C13.3029 1.65928 12.5499 0.90625 11.6234 0.90625H2.586C1.65933 0.90625 0.90625 1.65923 0.90625 2.58582V11.6234C0.90625 12.5501 1.65928 13.3031 2.586 13.3031H9.79083H10.2908V12.8031V12.3765C10.2908 11.2268 11.2269 10.2906 12.3766 10.2906H12.8029H13.3029V9.79065V6.35156C13.3029 6.28603 13.3346 6.22441 13.388 6.18622C13.388 6.1862 13.388 6.18619 13.388 6.18617L15.2229 4.87555L15.7925 4.46869L15.2229 4.06182L13.388 2.75116ZM10.612 21.2488L10.6122 21.249C10.6654 21.2869 10.6971 21.3484 10.6971 21.414C10.6971 22.3407 11.4501 23.0938 12.3766 23.0938H21.4142C22.3408 23.0938 23.0938 22.3407 23.0938 21.414V12.3766C23.0938 11.45 22.3408 10.6969 21.4142 10.6969H13.5079H13.506H13.5042H12.3766C11.4501 10.6969 10.6971 11.45 10.6971 12.3766V17.6484C10.6971 17.714 10.6654 17.7756 10.612 17.8138L8.77713 19.1244L8.20753 19.5313L8.77713 19.9382L10.612 21.2488Z" fill="black" stroke="black"/>
<path d="M9.26501 6.48169C9.48383 6.48169 9.66144 6.30408 9.66144 6.08508C9.66144 5.86609 9.48383 5.68848 9.26501 5.68848H7.50116V4.72571C7.50116 4.50671 7.32355 4.3291 7.10455 4.3291C6.88574 4.3291 6.70813 4.50671 6.70813 4.72571V5.68848H4.94427C4.72546 5.68848 4.54785 5.86609 4.54785 6.08508C4.54785 6.30408 4.72546 6.48169 4.94427 6.48169H5.49084C5.57819 7.31903 5.93927 8.07581 6.48236 8.66193C6.0321 8.93146 5.50623 9.0871 4.94427 9.0871C4.72546 9.0871 4.54785 9.26453 4.54785 9.48352C4.54785 9.70251 4.72546 9.88013 4.94427 9.88013C5.74664 9.88013 6.49097 9.62927 7.10455 9.20264C7.71832 9.62927 8.46265 9.88013 9.26501 9.88013C9.48383 9.88013 9.66144 9.70251 9.66144 9.48352C9.66144 9.26453 9.48383 9.0871 9.26501 9.0871C8.70306 9.0871 8.17719 8.93182 7.72693 8.66193C8.27002 8.07581 8.6311 7.31903 8.71844 6.48169H9.26501ZM7.10455 8.16644C6.67078 7.71619 6.37616 7.13153 6.28992 6.48169H7.91937C7.83313 7.13153 7.53851 7.71619 7.10455 8.16644Z" fill="black"/>
</g>
<defs>
<clipPath id="clip0_325_1627">
<rect width="24" height="24" fill="white"/>
</clipPath>
</defs>
</svg>
