<svg width="50" height="51" viewBox="0 0 50 51" fill="none" xmlns="http://www.w3.org/2000/svg">
<path d="M25.0002 29.6666C27.3013 29.6666 29.1668 27.8011 29.1668 25.4999C29.1668 23.1987 27.3013 21.3333 25.0002 21.3333C22.699 21.3333 20.8335 23.1987 20.8335 25.4999C20.8335 27.8011 22.699 29.6666 25.0002 29.6666Z" stroke="white" stroke-width="1.5" stroke-linecap="round" stroke-linejoin="round"/>
<path d="M41.6665 38C44.2915 34.5208 45.8332 30.1875 45.8332 25.5C45.8332 20.8125 44.2915 16.4792 41.6665 13" stroke="white" stroke-width="1.5" stroke-linecap="round" stroke-linejoin="round"/>
<path d="M8.33317 13C5.70817 16.4792 4.1665 20.8125 4.1665 25.5C4.1665 30.1875 5.70817 34.5208 8.33317 38" stroke="white" stroke-width="1.5" stroke-linecap="round" stroke-linejoin="round"/>
<path d="M35 32.9998C36.5625 30.9164 37.5 28.3123 37.5 25.4998C37.5 22.6873 36.5625 20.0831 35 17.9998" stroke="white" stroke-width="1.5" stroke-linecap="round" stroke-linejoin="round"/>
<path d="M15 17.9998C13.4375 20.0831 12.5 22.6873 12.5 25.4998C12.5 28.3123 13.4375 30.9164 15 32.9998" stroke="white" stroke-width="1.5" stroke-linecap="round" stroke-linejoin="round"/>
</svg>
